<svg width="75" height="49" viewBox="0 0 75 49" fill="none" xmlns="http://www.w3.org/2000/svg">
<path d="M26.5566 33.9463C27.1523 34.083 27.8115 34.2246 28.5342 34.3711C29.2666 34.5176 29.9209 34.5908 30.4971 34.5908C31.083 34.5908 31.6885 34.5615 32.3135 34.5029C32.9482 34.4443 33.4854 34.3076 33.9248 34.0928C34.3643 33.8682 34.584 33.502 34.584 32.9941C34.584 32.7695 34.5254 32.4766 34.4082 32.1152C34.291 31.7539 34.1934 31.4902 34.1152 31.3242L31.4492 24.6006L35.3311 22.8281L38.7148 31.4707C38.9102 31.9785 39.1055 32.4717 39.3008 32.9502C39.5059 33.4287 39.75 33.8242 40.0332 34.1367C40.3164 34.4492 40.6826 34.6055 41.1318 34.6055H41.7471V39H41.1318C40.1357 39 39.291 38.8389 38.5977 38.5166C37.9043 38.1846 37.3135 37.7207 36.8252 37.125C36.1025 37.7598 35.248 38.2285 34.2617 38.5312C33.2754 38.834 32.0938 38.9854 30.7168 38.9854C29.8477 38.9854 29.0957 38.9316 28.4609 38.8242C27.8262 38.7168 27.1914 38.5898 26.5566 38.4434V33.9463ZM49.833 26.2559C50.0869 27.1152 50.3018 28.0674 50.4775 29.1123C50.6631 30.1572 50.7559 31.1289 50.7559 32.0273C50.7559 34.4102 50.1211 36.168 48.8516 37.3008C47.582 38.4336 45.751 39 43.3584 39H41.1758V34.6055H43.3584C44.2666 34.6055 44.9404 34.5566 45.3799 34.459C45.8291 34.3613 46.127 34.1367 46.2734 33.7852C46.4199 33.4238 46.4932 32.8525 46.4932 32.0713C46.4932 31.4072 46.415 30.6162 46.2588 29.6982C46.1025 28.7705 45.9414 27.9551 45.7754 27.252L49.833 26.2559ZM39.9746 43.4385L42.5234 40.9043L45.0137 43.3799L47.4893 40.9043L50.0381 43.4531L47.4893 46.002L45.0137 43.5117L42.5234 46.002L39.9746 43.4385ZM58.9883 38.9121C58.5781 38.9707 58.207 39 57.875 39C56.0488 39 54.5889 38.5654 53.4951 37.6963C52.4111 36.8271 51.8691 35.5234 51.8691 33.7852C51.8691 32.9941 51.9814 32.1934 52.2061 31.3828C52.4307 30.5625 52.7725 29.8057 53.2314 29.1123C53.7002 28.4189 54.2959 27.8623 55.0186 27.4424C55.7412 27.0225 56.5957 26.8125 57.582 26.8125C58.6855 26.8125 59.623 27.0762 60.3945 27.6035C61.166 28.1309 61.791 28.8291 62.2695 29.6982C62.748 30.5674 63.0947 31.5244 63.3096 32.5693C63.5342 33.6143 63.6465 34.6543 63.6465 35.6895C63.6465 38.8047 62.748 41.3145 60.9512 43.2188C59.1543 45.123 56.5762 46.3828 53.2168 46.998L51.6934 43.0723C53.5293 42.7305 55.0723 42.2178 56.3223 41.5342C57.5723 40.8506 58.4609 39.9766 58.9883 38.9121ZM59.3984 34.5322C59.252 33.1748 58.998 32.2764 58.6367 31.8369C58.2754 31.3877 57.8848 31.1631 57.4648 31.1631C57.1426 31.1631 56.874 31.2998 56.6592 31.5732C56.4541 31.8467 56.2979 32.1787 56.1904 32.5693C56.0928 32.96 56.0439 33.3408 56.0439 33.7119C56.0439 34.0439 56.1367 34.2881 56.3223 34.4443C56.5078 34.5908 57.0498 34.6641 57.9482 34.6641C58.4365 34.6641 58.9199 34.6201 59.3984 34.5322ZM72.0107 29.3027C72.4893 30.3965 72.875 31.5586 73.168 32.7891C73.4609 34.0195 73.6074 35.2451 73.6074 36.4658C73.6074 38.1553 73.2656 39.7129 72.582 41.1387C71.8984 42.5645 70.8633 43.79 69.4766 44.8154C68.0898 45.8408 66.332 46.5928 64.2031 47.0713L62.3428 43.292C64.7158 42.7158 66.4883 41.8955 67.6602 40.8311C68.832 39.7666 69.418 38.3896 69.418 36.7002C69.418 35.8018 69.2764 34.8154 68.9932 33.7412C68.7197 32.667 68.3828 31.666 67.9824 30.7383L72.0107 29.3027Z" fill="black"/>
<path d="M0.556641 34.0195C1.16211 34.1465 1.86035 34.2734 2.65137 34.4004C3.44238 34.5273 4.10645 34.5908 4.64355 34.5908C5.87402 34.5908 6.81641 34.5078 7.4707 34.3418C8.13477 34.166 8.58887 33.9414 8.83301 33.668C9.08691 33.3848 9.21387 33.0918 9.21387 32.7891C9.21387 32.3203 8.94531 31.749 8.4082 31.0752C7.87109 30.3916 7.11914 29.6494 6.15234 28.8486C5.19531 28.0479 4.07715 27.2471 2.79785 26.4463L5.2002 22.8281C6.84082 23.8047 8.28613 24.8203 9.53613 25.875C10.7959 26.9199 11.7773 28.0137 12.4805 29.1562C13.1934 30.2891 13.5498 31.4854 13.5498 32.7451C13.5498 34.8545 12.7734 36.4219 11.2207 37.4473C9.66797 38.4629 7.53906 38.9707 4.83398 38.9707C4.04297 38.9707 3.2959 38.9219 2.59277 38.8242C1.88965 38.7168 1.21094 38.5947 0.556641 38.458V34.0195Z" fill="black"/>
<path d="M7.5 19L18.5 9C18.5 5.5 18.5 0 20.5 0C22.8696 0 23 3.5 23 9L34.5 18L35 21L23 14V21.5V38L26.5 42.5L24 42L21 40L18 42L15.5 42.5L19 38V21.5V14L7 21L7.5 19Z" fill="black"/>
</svg>
